Coordinates
version=1
nRows=13
nColumns=22
inDegrees=yes

Units are S.I. units (second, meters, Newtons, ...)
If the header above contains a line with 'inDegrees', this indicates whether rotational values are in degrees (yes) or radians (no).

endheader
time	pelvis_tilt	pelvis_list	pelvis_rotation	pelvis_tx	pelvis_ty	pelvis_tz	hip_flexion_r	hip_adduction_r	hip_rotation_r	knee_angle_r	ankle_angle_r	subtalar_angle_r	hip_flexion_l	hip_adduction_l	hip_rotation_l	knee_angle_l	ankle_angle_l	subtalar_angle_l	lumbar_extension	lumbar_bending	lumbar_rotation
      6.58000000	     -1.72657465	     -6.85481696	   -153.21677019	      0.46541969	      1.08612358	      1.02672838	     10.34023825	     -6.86337469	     -1.39627440	    -39.88814718	     18.10280355	     -2.59065540	     -2.24745403	      7.92088152	     -0.18774875	     -8.44899412	      8.12776133	     -3.73525940	     -5.68925748	     -8.84325312	     -5.37780352
      6.59000000	     -1.82501188	     -6.81004779	   -153.05545197	      0.46396888	      1.08626741	      1.02812461	      9.79311856	     -6.69444315	     -1.98388678	    -38.32932025	     18.53196665	     -2.32697338	     -2.38201223	      7.84866906	     -0.03241874	     -8.56261086	      8.28276364	     -3.74875978	     -5.72386628	     -8.78173031	     -5.44957157
      6.60000000	     -1.91798953	     -6.77054135	   -152.90158669	      0.46247743	      1.08636543	      1.02942660	      9.22976940	     -6.50567805	     -2.52732705	    -36.77990912	     18.84394927	     -1.99095137	     -2.50196850	      7.77698119	      0.11349111	     -8.69749758	      8.45815136	     -3.74219987	     -5.74581943	     -8.73161024	     -5.50278617
      6.61000000	     -1.99821085	     -6.73540003	   -152.75474881	      0.46096254	      1.08640761	      1.03064911	      8.66228086	     -6.30783562	     -3.03274318	    -35.25083245	     19.02944708	     -1.63900033	     -2.60091732	      7.70990604	      0.24590271	     -8.85005351	      8.65386039	     -3.71572819	     -5.74966233	     -8.69197212	     -5.53417058
      6.62000000	     -2.04482777	     -6.68729621	   -152.61465791	      0.45941986	      1.08635603	      1.03179476	      8.12897619	     -6.10476513	     -3.52292597	    -33.76383985	     19.04823505	     -1.36184296	     -2.65137500	      7.64183507	      0.36473538	     -9.01998898	      8.89782406	     -3.68538347	     -5.70195206	     -8.65829995	     -5.53672694
      6.63000000	     -2.10462410	     -6.66950148	   -152.49381595	      0.45783617	      1.08631503	      1.03288375	      7.55650048	     -5.91732857	     -3.96988321	    -32.31415151	     18.95964438	     -1.14779015	     -2.73771780	      7.59271419	      0.47258958	     -9.17346252	      9.11627160	     -3.62431989	     -5.67359298	     -8.64331300	     -5.52415037
      6.64000000	     -2.15796828	     -6.65975622	   -152.39275469	      0.45623423	      1.08624390	      1.03389130	      6.99052132	     -5.74226617	     -4.39017504	    -30.93623299	     18.74740467	     -1.10316149	     -2.81618019	      7.55082129	      0.55548666	     -9.33356340	      9.31656734	     -3.55100763	     -5.63489257	     -8.63975937	     -5.48309174
      6.65000000	     -2.18791447	     -6.64687055	   -152.31873556	      0.45462355	      1.08612962	      1.03483215	      6.46834752	     -5.58669433	     -4.78050904	    -29.66498780	     18.37660814	     -1.27441232	     -2.87657456	      7.51741751	      0.61407250	     -9.47728818	      9.51775206	     -3.49571219	     -5.56226747	     -8.63947396	     -5.41291882
      6.66000000	     -2.20447331	     -6.62683459	   -152.27571821	      0.45301703	      1.08599215	      1.03569627	      5.99025051	     -5.44733164	     -5.12727834	    -28.52493369	     17.90083708	     -1.64001090	     -2.92404468	      7.48491999	      0.65647012	     -9.60870294	      9.70135701	     -3.47330386	     -5.46547933	     -8.63351950	     -5.30816615
      6.67000000	     -2.20569426	     -6.58962330	   -152.27177803	      0.45140835	      1.08584389	      1.03648217	      5.57096730	     -5.32002362	     -5.41510128	    -27.53749173	     17.36349422	     -2.11762326	     -2.95575379	      7.44584450	      0.66311487	     -9.71795799	      9.86333856	     -3.48895022	     -5.33639123	     -8.61021716	     -5.17552886
      6.68000000	     -2.20648502	     -6.54927769	   -152.30988397	      0.44983661	      1.08573156	      1.03715114	      5.19941728	     -5.21033580	     -5.61761383	    -26.71821786	     16.81028825	     -2.66124435	     -2.97639257	      7.40674064	      0.65131928	     -9.83353736	      9.98243942	     -3.52751444	     -5.20683990	     -8.58328673	     -4.99555561
      6.69000000	     -2.20141534	     -6.47602800	   -152.38351961	      0.44826637	      1.08565977	      1.03773634	      4.88458353	     -5.09241325	     -5.73875303	    -26.04365099	     16.30120835	     -3.13711401	     -2.98106871	      7.34063976	      0.60149048	     -9.92881292	     10.08666979	     -3.57736063	     -5.04868390	     -8.51999028	     -4.80362781
      6.70000000	     -2.19979487	     -6.35467655	   -152.48240149	      0.44670189	      1.08564768	      1.03824801	      4.61308182	     -4.94250742	     -5.78015318	    -25.47764952	     15.87529236	     -3.44501188	     -2.96583476	      7.22792909	      0.51852450	    -10.01529792	     10.19868731	     -3.62638190	     -4.86645576	     -8.40021790	     -4.61409713
